# File created by Blade
# Date/Time:  Fri Jan 16 19:32:17 2015
# Frame Rate: 120.000 fps
#------------------------------------------------------
:FULLY-SPECIFIED
:DEGREES
319
root 19.542034 35.449059 -19.640292 13.870452 12.289143 -0.129316
Spine -28.608660 -13.452477 0.185880
Head 16.935354 0.849389 9.370417
LeftShoulder -4.256799 -0.673703 -5.827761
LeftArm -106.074948 55.630356 -205.698919
LeftForeArm 48.716253 -0.000000 133.550866
LeftHand 13.426416 -0.000000 -20.320421
LeftHandThumb1 -26.253704 0.000000 33.147579
RightShoulder -17.665455 26.885325 -35.736057
RightArm -210.177584 55.225484 -253.044042
RightForeArm 1.161651 -0.000000 155.201229
RightHand 0.987047 -0.000000 -18.464341
RightHandThumb1 -24.326973 -0.000000 -32.862282
LeftUpLeg -4.003773 0.194693 2.000665
LeftLeg -7.700051 -0.000000 0.000000
LeftFoot -19.598144 26.326827 -13.713240
LeftToeBase 25.953557 -0.000000 -0.000000
RightUpLeg -1.462755 -17.326938 0.545607
RightLeg -5.060308 -0.000000 0.000000
RightFoot -23.416985 -24.496253 21.666876
RightToeBase 23.383730 -0.000000 -0.000000
320
root 19.545209 35.449483 -19.635817 13.884193 12.346506 -0.146030
Spine -28.621488 -13.414105 0.201977
Head 16.910180 0.725802 9.416388
LeftShoulder -4.217677 -0.786490 -5.880163
LeftArm -106.121191 55.676635 -205.794255
LeftForeArm 48.353122 -0.000000 133.701104
LeftHand 13.306933 0.000000 -20.331062
LeftHandThumb1 -26.253704 0.000000 33.147579
RightShoulder -17.668711 26.812876 -35.730627
RightArm -210.167905 55.023795 -253.278541
RightForeArm 1.733270 -0.000000 155.092252
RightHand 1.148717 0.000000 -18.211066
RightHandThumb1 -24.326973 -0.000000 -32.862282
LeftUpLeg -4.015032 0.182607 2.017484
LeftLeg -7.720427 -0.000000 0.000000
LeftFoot -19.579287 26.322356 -13.687664
LeftToeBase 25.847374 -0.000000 -0.000000
RightUpLeg -1.457151 -17.314721 0.564992
RightLeg -5.071333 -0.000000 0.000000
RightFoot -23.399331 -24.499165 21.736335
RightToeBase 23.216179 -0.000000 -0.000000
321
root 19.549856 35.449674 -19.633847 13.908426 12.389369 -0.133131
Spine -28.626540 -13.362730 0.173727
Head 16.858377 0.591936 9.479435
LeftShoulder -4.144933 -0.964728 -5.944936
LeftArm -106.171477 55.726126 -205.953532
LeftForeArm 48.024620 -0.000000 133.793853
LeftHand 13.145659 -0.000000 -20.226532
LeftHandThumb1 -26.253704 0.000000 33.147579
RightShoulder -17.633788 26.780286 -35.720282
RightArm -210.146248 54.991418 -253.597328
RightForeArm 1.744956 -0.000000 154.990054
RightHand 0.996365 -0.000000 -18.166654
RightHandThumb1 -24.326973 -0.000000 -32.862282
LeftUpLeg -4.025678 0.146509 2.004202
LeftLeg -7.747025 -0.000000 0.000000
LeftFoot -19.570183 26.332448 -13.701239
LeftToeBase 25.862851 -0.000000 -0.000000
RightUpLeg -1.467387 -17.285017 0.549591
RightLeg -5.064235 -0.000000 0.000000
RightFoot -23.412494 -24.577023 21.691927
RightToeBase 23.252268 -0.000000 -0.000000
322
root 19.552883 35.450254 -19.635359 13.973604 12.469921 -0.118834
Spine -28.675344 -13.349837 0.161259
Head 16.812633 0.459580 9.539641
LeftShoulder -4.098020 -1.109512 -6.003293
LeftArm -106.240721 55.867893 -206.134076
LeftForeArm 47.619733 -0.000000 133.884514
LeftHand 13.027616 -0.000000 -20.149573
LeftHandThumb1 -26.253704 0.000000 33.147579
RightShoulder -17.640707 26.813264 -35.746081
RightArm -210.290653 54.974301 -254.032567
RightForeArm 1.659048 -0.000000 154.839359
RightHand 0.996121 -0.000000 -18.067946
RightHandThumb1 -24.326973 -0.000000 -32.862282
LeftUpLeg -4.103726 0.113102 1.996874
LeftLeg -7.745023 -0.000000 0.000000
LeftFoot -19.547669 26.300256 -13.682794
LeftToeBase 25.893998 -0.000000 -0.000000
RightUpLeg -1.522513 -17.292704 0.559117
RightLeg -5.059563 -0.000000 0.000000
RightFoot -23.431680 -24.621965 21.707461
RightToeBase 23.262125 -0.000000 -0.000000
323
root 19.561267 35.448818 -19.624919 13.958375 12.572717 -0.092568
Spine -28.661348 -13.372048 0.152467
Head 16.787081 0.359736 9.568544
LeftShoulder -4.084597 -1.234132 -6.195409
LeftArm -106.279345 55.946097 -206.266910
LeftForeArm 47.451647 -0.000000 133.999280
LeftHand 12.908971 0.000000 -20.124200
LeftHandThumb1 -26.253704 0.000000 33.147579
RightShoulder -17.624890 26.796108 -35.772872
RightArm -210.284152 54.896053 -254.331778
RightForeArm 1.739682 -0.000000 154.705379
RightHand 1.041633 -0.000000 -17.862979
RightHandThumb1 -24.326973 -0.000000 -32.862282
LeftUpLeg -4.055547 0.073082 1.977014
LeftLeg -7.794115 -0.000000 0.000000
LeftFoot -19.503016 26.245030 -13.672089
LeftToeBase 25.844044 -0.000000 -0.000000
RightUpLeg -1.440458 -17.374712 0.528130
RightLeg -5.109702 -0.000000 0.000000
RightFoot -23.431652 -24.622834 21.736071
RightToeBase 23.314941 -0.000000 -0.000000
324
root 19.568978 35.447798 -19.622027 13.990185 12.661640 -0.062915
Spine -28.683596 -13.382796 0.141839
Head 16.709656 0.248928 9.619195
LeftShoulder -4.042718 -1.394890 -6.264188
LeftArm -106.650698 56.177325 -206.814388
LeftForeArm 47.334607 -0.000000 133.992340
LeftHand 12.750953 -0.000000 -19.712640
LeftHandThumb1 -26.253704 0.000000 33.147579
RightShoulder -17.640718 26.902723 -35.853968
RightArm -210.353065 54.753353 -254.607356
RightForeArm 2.047310 -0.000000 154.584703
RightHand 1.133755 -0.000000 -17.540594
RightHandThumb1 -24.326973 -0.000000 -32.862282
LeftUpLeg -4.068810 0.017676 1.953129
LeftLeg -7.831377 -0.000000 0.000000
LeftFoot -19.476818 26.215131 -13.674962
LeftToeBase 25.828156 -0.000000 -0.000000
RightUpLeg -1.428691 -17.401755 0.502756
RightLeg -5.136800 -0.000000 0.000000
RightFoot -23.436955 -24.628748 21.798699
RightToeBase 23.174200 -0.000000 -0.000000
325
root 19.575920 35.446408 -19.621759 14.054496 12.748526 -0.029701
Spine -28.745871 -13.392069 0.148211
Head 16.677152 0.139604 9.599895
LeftShoulder -4.044217 -1.483878 -6.350240
LeftArm -106.825733 56.404889 -207.112212
LeftForeArm 47.090747 0.000000 133.995147
LeftHand 12.675709 0.000000 -19.509293
LeftHandThumb1 -26.253704 0.000000 33.147579
RightShoulder -17.659847 26.979676 -35.975482
RightArm -210.322018 54.535085 -254.721529
RightForeArm 2.465796 0.000000 154.484471
RightHand 1.152824 -0.000000 -17.399180
RightHandThumb1 -24.326973 -0.000000 -32.862282
LeftUpLeg -4.127120 -0.016504 1.925422
LeftLeg -7.851538 -0.000000 0.000000
LeftFoot -19.432852 26.160791 -13.642863
LeftToeBase 25.835685 -0.000000 -0.000000
RightUpLeg -1.459093 -17.428891 0.485209
RightLeg -5.157488 -0.000000 0.000000
RightFoot -23.462577 -24.693546 21.753521
RightToeBase 23.236792 -0.000000 -0.000000
326
root 19.581252 35.445527 -19.622107 14.118828 12.876377 0.020449
Spine -28.800980 -13.458970 0.147528
Head 16.631510 0.040613 9.575471
LeftShoulder -4.053257 -1.568527 -6.564977
LeftArm -107.102165 56.592768 -207.477596
LeftForeArm 47.196337 -0.000000 134.054731
LeftHand 12.576121 -0.000000 -19.306617
LeftHandThumb1 -26.253704 0.000000 33.147579
RightShoulder -17.673539 27.049505 -36.086445
RightArm -210.241554 54.349166 -254.798890
RightForeArm 2.841649 -0.000000 154.385772
RightHand 1.203237 0.000000 -17.222853
RightHandThumb1 -24.326973 -0.000000 -32.862282
LeftUpLeg -4.189113 -0.164164 1.903935
LeftLeg -7.870315 -0.000000 0.000000
LeftFoot -19.416338 26.164487 -13.664602
LeftToeBase 25.830922 -0.000000 -0.000000
RightUpLeg -1.480782 -17.525191 0.466764
RightLeg -5.185348 -0.000000 0.000000
RightFoot -23.487856 -24.710412 21.763233
RightToeBase 23.277723 -0.000000 -0.000000
